<svg xmlns="http://www.w3.org/2000/svg" xml:space="preserve" fill-rule="evenodd" stroke-linejoin="round" stroke-miterlimit="2" clip-rule="evenodd" viewBox="0 0 512 128">
  <title>Nushell Logo, by Uli Troyo</title>
  <g id="icon">
    <path id="ellie" fill="url(#_Linear1)" d="M50 39.8C51.9 35.3 62 29 75 27c13.2-1.9 24.7.9 27.7 5.1 6-4 15-4.2 20 0 3.9 3.2 5.4 18.7 3 24a16.3 16.3 0 0 1-18.4 8.4c.2 4.5-2.1 8.2-5.6 10.8-3.4 2.5-6.5 6.4-5.3 10.2 1 3.7 3.8 4.7 9.8 1.9 4.8-2.3 4.5-6.5 6.5-8.6 1.8-1.8 11.4 2.2 10.8 4.5-1.6 6-7 16.3-18.3 17.9-11.4 1.6-21.8-7-24.9-14.7-1.8-4.4-11.7-3.6-17.1-5.5a13.4 13.4 0 0 1-8.5-8.9c-6.1 4-16.2 2-19.8-3.1-3.7-5.4-7.2-19.4-3.1-24.9 3.6-5 11.3-6.4 18.3-4.4Z"/>
    <path id="prompt" fill="#b7bc02" d="M59.3 53a1.7 1.7 0 0 1-1-2 2 2 0 0 1 2.2-1c5 1.6 10.2 2.4 14.8 4.6.6.2.9.8.9 1.3 0 .6-.4 1.1-1 1.3C71.3 59 66.4 61.6 62 64c-.8.4-1.8.2-2.3-.5-.5-.7-.2-1.6.6-2 3.3-1.9 7-3.9 10.3-5.5-3.7-1.2-7.6-1.9-11.4-3Z"/>
    <path id="cursor" fill="#b7bc02" d="M91.1 45.4c0-.8.6-1.6 1.5-1.7 1 0 1.7.5 1.8 1.4a106 106 0 0 0 2.2 12.4c.2.8-.4 1.6-1.3 1.8-.9.2-1.8-.3-2-1-1-4.2-1.7-8.1-2.2-12.9Z"/>
  </g>
  <g id="text" fill-rule="nonzero">
    <path id="n" fill="#b7bc02" d="M159 90.9V43.2h9v1.1c3.2-1.5 7-2.2 11.3-2.2 4.4 0 7.8.6 10.2 1.8 2.4 1.2 4 3.3 5 6.1a37 37 0 0 1 1.6 12v29h-9V62c0-3.1-.2-5.5-.6-7.1a6.1 6.1 0 0 0-2.4-3.6c-1.1-.8-2.7-1.1-4.8-1.1-3.3 0-5.8.3-7.4.9a5 5 0 0 0-3.1 3.1c-.6 1.5-.8 3.8-.8 7v29.6h-9Z"/>
    <path id="u" fill="#b7bc02" d="M226.4 92c-4.2 0-7.5-.7-9.9-2a11 11 0 0 1-5.2-6 33.4 33.4 0 0 1-1.7-11.6V43.2h9v29.2c0 3.1.1 5.5.6 7.1a4.9 4.9 0 0 0 2.3 3.3c1 .7 2.7 1 4.9 1 3.2 0 5.6-.3 7.1-.8a5.2 5.2 0 0 0 3.3-2.7 15 15 0 0 0 1-5.9V43.2h8.9v47.7h-9V90a27.8 27.8 0 0 1-11.3 1.9Z"/>
    <path id="s" fill="#6b6b6b" d="M275.5 92c-4.3 0-7.7-.8-10.2-2.4a20 20 0 0 1-6.7-8.1l7-5.8c1 2.3 1.9 4 2.6 5.1a6 6 0 0 0 2.8 2.3c1 .5 2.6.7 4.5.7 3.5 0 6.2-.2 8-.6 1.8-.5 3-1.1 3.7-2 .7-1 1-2.4 1-4.2 0-1.8-.3-3.1-.8-4a5.1 5.1 0 0 0-3-1.8c-1.3-.4-3.6-.8-7-1.2a30.4 30.4 0 0 1-13.4-4.2c-2.8-2-4.2-5-4.2-9.3 0-3.5.6-6.3 2-8.3 1.2-2.1 3.3-3.7 6.1-4.6a36 36 0 0 1 11.4-1.5c4.5 0 8 .7 10.6 2 2.5 1.3 4.8 3.7 6.9 7.1l-6.5 6.3a28.4 28.4 0 0 0-3-4.6c-.8-1-1.8-1.7-3-2a31 31 0 0 0-11.7 0c-1.5.3-2.5.9-3 1.8a7 7 0 0 0-1 3.8c0 1.2.4 2.1 1 2.7.6.7 1.5 1.1 2.8 1.4 1.2.3 3.1.7 5.7 1 4.9.7 8.7 1.6 11.4 2.7 2.7 1 4.6 2.6 5.8 4.5 1.2 2 1.8 4.7 1.8 8.2a17 17 0 0 1-2 8.7 12.2 12.2 0 0 1-7 4.7 42 42 0 0 1-12.6 1.6Z"/>
    <path id="h" fill="#6b6b6b" d="M309.5 90.9V29h8.9v14.4c2.7-1 6-1.4 9.5-1.4 4.6 0 8.2.9 11 2.6 2.6 1.6 4.5 4.4 5.7 8.1a53 53 0 0 1 1.8 15.4v22.7h-8.9V68.2a50 50 0 0 0-.9-11c-.6-2.6-1.5-4.4-2.9-5.4a9.7 9.7 0 0 0-5.8-1.5c-2.8 0-4.8.3-6.1.8a4.8 4.8 0 0 0-2.7 3.1c-.5 1.5-.7 3.9-.7 7V91h-9Z"/>
    <path id="e" fill="#6b6b6b" d="M377.9 42.1c5 0 8.8 1 11.7 2.7 2.8 1.9 4.7 4.8 5.9 8.7 1.2 4 1.7 9.2 1.6 16h-30.7a30 30 0 0 0 1.4 8.6c.7 2 2 3.5 3.5 4.4 1.6.8 3.8 1.3 6.6 1.3 2 0 3.6-.2 4.9-.6 1.2-.4 2.4-1 3.4-2s2.3-2.6 3.8-4.6l7 4.7c-2.5 4-5.2 6.7-8 8.3a22.8 22.8 0 0 1-11.1 2.4c-5.1 0-9.2-.9-12.1-2.6-3-1.7-5-4.3-6.4-8a44 44 0 0 1-2-14.4c0-6 .7-10.8 2-14.4 1.3-3.6 3.4-6.3 6.4-8 3-1.6 7-2.5 12-2.5Zm10 19.1c-.2-2.8-.7-5-1.4-6.5a6.7 6.7 0 0 0-3.1-3.4c-1.4-.7-3.2-1-5.5-1-2.6 0-4.7.3-6.2 1a7 7 0 0 0-3.5 3.4c-.8 1.6-1.3 3.8-1.6 6.5H388Z"/>
    <path id="l1" fill="#6b6b6b" d="M427.6 92c-3.6 0-6.4-.6-8.3-1.7-2-1-3.4-2.8-4.3-5.4-.8-2.5-1.3-6-1.3-10.6v-37H404v-8.2h18.6v45.2c0 3.6.4 6 1.1 7.4.7 1.4 2 2 4 2 .9 0 1.9-.2 3-.9 1-.6 2.4-1.7 4.3-3.3l5 7.6a23.7 23.7 0 0 1-6 3.8c-1.9.7-4 1-6.4 1Z"/>
    <path id="l2" fill="#6b6b6b" d="M469.7 92c-3.6 0-6.4-.6-8.4-1.7-2-1-3.4-2.8-4.2-5.4-.9-2.5-1.3-6-1.3-10.6v-37h-9.7v-8.2h18.6v45.2c0 3.6.3 6 1 7.4.8 1.4 2 2 4 2 1 0 2-.2 3-.9 1-.6 2.5-1.7 4.4-3.3l5 7.6a23.7 23.7 0 0 1-6.1 3.8c-1.8.7-3.9 1-6.3 1Z"/>
  </g>
  <defs>
    <linearGradient id="_Linear1" x1="0" x2="1" y1="0" y2="0" gradientTransform="matrix(-57 109 -109 -57 101.4 10)" gradientUnits="userSpaceOnUse">
      <stop offset="0" stop-color="#6b6b6b"/>
      <stop offset="1" stop-color="#3c3c3c"/>
    </linearGradient>
  </defs>
</svg>
